<svg xmlns="http://www.w3.org/2000/svg" width="1335" height="483" viewBox="0 0 1335 483">
    <defs>
        <linearGradient id="a" x1="3.382%" y1="96.618%" y2="0%">
            <stop offset="0%" stop-color="#0A80B7" stop-opacity=".145"/>
            <stop offset="100%" stop-color="#22C2E3" stop-opacity=".162"/>
        </linearGradient>
        <linearGradient id="b" x1="0%" y1="100%" y2="0%">
            <stop offset="3.382%" stop-color="#0A80B7" stop-opacity=".145"/>
            <stop offset="100%" stop-color="#22C2E3" stop-opacity=".162"/>
        </linearGradient>
        <linearGradient id="c" x1="104.686%" x2="17.918%" y1="104.106%" y2="33.776%">
            <stop offset="0%" stop-color="#0A80B7" stop-opacity=".145"/>
            <stop offset="100%" stop-color="#22C2E3" stop-opacity=".162"/>
        </linearGradient>
    </defs>
    <g fill="#DEF0F5" fill-opacity=".2" fill-rule="nonzero">
        <path stroke="url(#a)" d="M0 172.077l124.597-29.085-74.968 234.97 338.696 102.739 144.707-25.533L627 496.992H0z" transform="translate(-3 -8.992)"/>
        <path stroke="url(#a)" d="M1 58.992l150.063 304.905L601 495.992H1z" transform="translate(-3 -8.992)"/>
        <path stroke="url(#b)" d="M0 296.992l221 200H5a5 5 0 0 1-5-5v-195z" transform="translate(-3 -8.992)"/>
        <path stroke="url(#c)" d="M1276.897.992l40.016 57.916-101.487 309.488L915 495.992h434v-495z" transform="translate(-3 -8.992)"/>
        <path stroke="url(#c)" d="M1038 496.992l172.593-176.845L1350 233.992v263z" transform="translate(-3 -8.992)"/>
        <path stroke="url(#c)" d="M1242.843 2.992l49.61 397.647-91.28 37.7-59.68 42.454-272.752-31.682L574 493.99h768v-491z" transform="translate(-3 -8.992)"/>
    </g>
</svg>
