<svg xmlns="http://www.w3.org/2000/svg" width="30" height="30" viewBox="0 0 30 30">
    <g fill="#08A1D2" fill-rule="evenodd">
        <path d="M16.758 10.605h-3.516v3.516h3.516c.967 0 1.758-.79 1.758-1.758 0-.967-.791-1.758-1.758-1.758zM16.758 15.879h-3.516v3.516h3.516c.967 0 1.758-.791 1.758-1.758s-.791-1.758-1.758-1.758z"/>
        <path fill-rule="nonzero" d="M15 0C6.756 0 0 6.756 0 15s6.756 15 15 15 15-6.756 15-15S23.244 0 15 0zm9.349 24.349c-2.511 2.51-5.831 3.893-9.349 3.893S8.162 26.86 5.651 24.35C3.141 21.838 1.758 18.518 1.758 15S3.14 8.162 5.65 5.651C8.162 3.141 11.482 1.758 15 1.758s6.838 1.382 9.349 3.893c2.51 2.511 3.893 5.831 3.893 9.349s-1.382 6.838-3.893 9.349z"/>
        <path fill-rule="nonzero" d="M23.106 6.894C20.926 4.716 18.048 3.516 15 3.516s-5.927 1.2-8.106 3.378C4.716 9.074 3.516 11.952 3.516 15s1.2 5.927 3.378 8.106c2.18 2.178 5.058 3.378 8.106 3.378s5.927-1.2 8.106-3.378c2.178-2.18 3.378-5.058 3.378-8.106s-1.2-5.927-3.378-8.106zm-2.833 10.743a3.526 3.526 0 0 1-3.515 3.515v1.758H15v-1.758h-1.758v1.758h-1.758v-1.758H9.727v-1.757h1.757v-8.79H9.727V8.848h1.757V7.09h1.758v1.758H15V7.09h1.758v1.758a3.526 3.526 0 0 1 3.515 3.515A3.473 3.473 0 0 1 19.061 15a3.473 3.473 0 0 1 1.212 2.637z"/>
    </g>
</svg>
