<svg xmlns="http://www.w3.org/2000/svg" width="30" height="30" viewBox="0 0 30 30">
    <g fill="#08A1D2" fill-rule="nonzero">
        <path d="M4.545 23.051c-1.597.31-2.559.143-3.517-2.584C.07 17.74-1.077 12.873 2 7.53 5.075 2.186 11.01-.295 17.525.028c6.376.365 10.255 5.157 11.481 8.349 1.28 2.994.57 4.195-1.398 5.777-1.312 1.055-2.84 2.13-4.587 3.226V8.953c.222-1.447-.402-2.171-1.871-2.171-2.204 0-2.007-.067-2.007 2.171v9.467c0 .494-.287.942-.736 1.148-.45.207-1.882.21-1.882-.81v-7.89c-.312-.848-.842-1.273-1.591-1.273h-.992c-.938.069-1.407.493-1.407 1.274v10.155c-.108.332-.347.596-.717.792-.554.293-1.605.08-1.605-1.35v-6.312c-.165-.8-.658-1.201-1.48-1.201H7.396c-.709.209-1.063.711-1.063 1.508v7.783c-.128.331-.724.6-1.789.807zM5.696 26.08c4.795 4.497 10.566 5.125 17.312 1.884 5.296-3.16 7.584-7.776 6.862-13.85-3.327 3.887-6.989 6.777-10.986 8.67-3.997 1.894-8.393 2.992-13.188 3.296z"/>
    </g>
</svg>
