<svg xmlns="http://www.w3.org/2000/svg" width="88" height="88" viewBox="0 0 88 88">
    <g fill="none" fill-rule="evenodd">
        <g>
            <circle cx="44" cy="44" r="44" fill="#08A1D2" fill-rule="nonzero"/>
            <g transform="translate(23 23)">
                <ellipse cx="14.464" cy="13.611" fill="#0180B8" rx="7.118" ry="7.833"/>
                <path fill="#FFF" fill-rule="nonzero" d="M43 33.052c0-.028 0-.056-.009-.085a.294.294 0 0 0-.017-.085c-.01-.028-.01-.056-.018-.075a.292.292 0 0 0-.035-.076.292.292 0 0 0-.035-.075.17.17 0 0 0-.044-.066c-.017-.02-.026-.048-.044-.066-.017-.02-.035-.038-.061-.057l-.053-.057c-.017-.019-.044-.028-.07-.047-.017-.01-.035-.028-.061-.038l-9.673-5.134a.252.252 0 0 0-.087-.038c-.167-.066-4.157-1.567-7.419.01l-7.2 2.803c-.017.01-.043.019-.06.028-1.035.51-1.58 1.652-1.36 2.85.22 1.19 1.114 2.03 2.236 2.086h.018c.07 0 .386-.018 3.665-.245 1.43-.094 2.903-.198 3.034-.208.412-.018.754-.377.763-.83.009-.472-.333-.869-.78-.878-.044 0-.044 0-3.113.208-1.535.103-3.254.226-3.543.245-.552-.047-.684-.547-.719-.698-.061-.321.026-.746.438-.963l7.191-2.803a.412.412 0 0 1 .061-.029c2.526-1.236 5.823-.122 6.218.01l4.305 2.284-2.367 6.012c-1.167-.774-2.587-.981-3.902-.557l-9.664 3.125a4.261 4.261 0 0 1-3.481-.387L1.978 30.39c-.544-.32-.368-.877-.324-.99.052-.152.28-.624.833-.463l11.76 4.219c.411.151.867-.094 1.008-.538.14-.453-.088-.934-.5-1.085L2.969 27.295c-.017-.01-.026-.01-.044-.01-1.166-.34-2.297.264-2.744 1.473-.456 1.217-.027 2.5 1.043 3.133l15.144 8.854a5.735 5.735 0 0 0 4.692.519l9.663-3.124a2.984 2.984 0 0 1 2.622.387l4.928 3.34a.256.256 0 0 0 .07.039c.01 0 .01.01.018.01h.009c.009.008.017.008.035.008.018.01.044.02.061.029.01 0 .027.01.035.01.018.009.044.009.062.018.009 0 .026 0 .035.01.035 0 .061.009.096.009s.07 0 .106-.01c.008 0 .026 0 .035-.009.026 0 .044-.01.07-.019.009 0 .026-.01.035-.01.017-.009.044-.018.061-.028.01-.009.027-.009.035-.018a.495.495 0 0 0 .062-.038c.009-.01.026-.019.035-.019.017-.01.035-.028.052-.038.01-.01.027-.019.036-.028l.043-.047.035-.038c.018-.019.027-.038.036-.057.008-.01.017-.028.026-.037 0 0 0-.01.009-.01 0-.01.008-.019.008-.019.01-.019.027-.047.035-.075l3.508-8.042c.009-.028.018-.047.026-.075a.682.682 0 0 1 .027-.076c.008-.028.008-.057.008-.085 0-.028.01-.057.01-.085.008-.028.008-.057.008-.085zm-1.842.434l-2.797 6.41-2.832-1.926 2.429-6.173 3.2 1.69zM14.468 26.444c7.114 0 12.896-5.934 12.896-13.217S21.574 0 14.468 0C7.363 0 1.564 5.935 1.564 13.227c0 7.292 5.79 13.217 12.904 13.217zm0-24.797c6.232 0 11.298 5.193 11.298 11.58 0 6.387-5.066 11.58-11.298 11.58-6.231 0-11.298-5.193-11.298-11.58 0-6.387 5.067-11.58 11.298-11.58z"/>
            </g>
        </g>
        <path fill-rule="nonzero" stroke="#FFF" stroke-linecap="round" stroke-width="1.6" d="M31.071 32.637a7.5 7.5 0 1 0 5.017-3.503"/>
    </g>
</svg>
