<svg xmlns="http://www.w3.org/2000/svg" width="88" height="88" viewBox="0 0 88 88">
    <g fill="none" fill-rule="evenodd">
        <circle cx="44" cy="44" r="44" fill="#08A1D2" fill-rule="nonzero"/>
        <g transform="translate(22 19.643)">
            <circle cx="22.393" cy="4.567" r="3.536" fill="#0180B8"/>
            <circle cx="39.679" cy="33.638" r="3.536" fill="#0180B8"/>
            <circle cx="4.321" cy="33.638" r="3.536" fill="#0180B8"/>
            <path fill="#FFF" fill-rule="nonzero" d="M44 14.819c0-2.576-2.106-4.665-4.704-4.665a4.685 4.685 0 0 0-3.54 1.601l-9.298-5.342c.16-.467.25-.975.25-1.502 0-2.576-2.105-4.665-4.703-4.665-2.598 0-4.704 2.089-4.704 4.665 0 .527.09 1.025.25 1.492l-9.297 5.342a4.72 4.72 0 0 0-3.54-1.601c-2.598 0-4.704 2.089-4.704 4.665 0 2.228 1.585 4.099 3.69 4.556l.011 10.465C1.595 30.288 0 32.158 0 34.386c0 2.577 2.106 4.666 4.704 4.666a4.714 4.714 0 0 0 3.49-1.542l9.328 5.342c-.15.457-.23.935-.23 1.442 0 2.577 2.105 4.666 4.703 4.666 2.598 0 4.704-2.09 4.704-4.666 0-.507-.08-.985-.23-1.442l9.327-5.342a4.714 4.714 0 0 0 3.49 1.542c2.598 0 4.704-2.09 4.704-4.666 0-2.258-1.635-4.158-3.791-4.576V19.385C42.365 18.977 44 17.087 44 14.82zm-4.704-2.865c1.595 0 2.889 1.283 2.889 2.865 0 1.582-1.294 2.865-2.889 2.865-1.595 0-2.888-1.283-2.888-2.865 0-1.582 1.303-2.865 2.888-2.865zM22.005 2.056c1.595 0 2.889 1.283 2.889 2.865 0 .487-.12.945-.341 1.353-.02.02-.03.04-.05.07l-.03.06a2.89 2.89 0 0 1-2.468 1.382c-1.595 0-2.889-1.283-2.889-2.865 0-1.582 1.294-2.865 2.889-2.865zM1.825 14.819c0-1.582 1.294-2.865 2.889-2.865 1.595 0 2.888 1.283 2.888 2.865 0 1.582-1.293 2.865-2.888 2.865s-2.889-1.283-2.889-2.865zm2.889 22.442c-1.595 0-2.889-1.283-2.889-2.865 0-1.581 1.294-2.865 2.889-2.865 1.595 0 2.888 1.284 2.888 2.865a2.89 2.89 0 0 1-2.888 2.865zm17.291 9.898c-1.595 0-2.889-1.283-2.889-2.865 0-1.581 1.294-2.865 2.889-2.865 1.595 0 2.889 1.284 2.889 2.865 0 1.582-1.294 2.865-2.889 2.865zm3.58-5.879a4.714 4.714 0 0 0-3.58-1.651 4.68 4.68 0 0 0-3.58 1.651l-9.288-5.312a4.55 4.55 0 0 0 .28-1.572c0-2.298-1.674-4.208-3.88-4.596l-.01-10.395c2.206-.378 3.89-2.298 3.89-4.596 0-.527-.09-1.034-.25-1.502l9.298-5.342a4.706 4.706 0 0 0 3.55 1.602 4.685 4.685 0 0 0 3.54-1.602l9.298 5.342c-.16.468-.25.975-.25 1.502 0 2.258 1.634 4.158 3.79 4.576V29.81c-2.156.418-3.79 2.308-3.79 4.576 0 .557.1 1.085.28 1.572l-9.297 5.322zm16.6-6.884c0 1.582-1.294 2.865-2.889 2.865-1.595 0-2.888-1.283-2.888-2.865 0-1.581 1.293-2.865 2.888-2.865s2.889 1.284 2.889 2.865z"/>
            <path fill="#FFF" d="M26.762 28.421V25.05c.551-.546.862-1.3.862-2.103v-4.424c0-2.713-2.144-4.92-4.779-4.92h-.921c-2.635 0-4.779 2.207-4.779 4.92v4.424c0 .804.32 1.557.862 2.103v3.372c-1.042.557-3.547 1.97-5.89 3.95a.953.953 0 0 0-.12 1.32.89.89 0 0 0 1.281.124c2.595-2.197 5.4-3.65 5.94-3.919.382-.196.612-.577.612-1.02v-4.27a.93.93 0 0 0-.4-.774 1.06 1.06 0 0 1-.462-.886v-4.424c0-1.681 1.333-3.053 2.966-3.053h.921c1.633 0 2.966 1.372 2.966 3.053v4.424c0 .35-.17.68-.461.886a.944.944 0 0 0-.401.774v4.27c0 .432.24.824.621 1.02.541.268 3.346 1.732 5.94 3.919a.88.88 0 0 0 1.273-.124.963.963 0 0 0-.12-1.32c-2.365-1.98-4.869-3.403-5.91-3.95z"/>
        </g>
    </g>
</svg>
