<svg xmlns="http://www.w3.org/2000/svg" width="88" height="88" viewBox="0 0 88 88">
    <g fill="none" fill-rule="evenodd">
        <circle cx="44" cy="44" r="44" fill="#08A1D2" fill-rule="nonzero"/>
        <path fill="#0180B8" d="M68.21 65.218v-2.45a1.74 1.74 0 0 0-.626-1.34c-2.216-1.816-4.6-3.027-5.087-3.265a.15.15 0 0 1-.09-.139v-3.443c.438-.288.716-.784.716-1.34V49.67a3.216 3.216 0 0 0-3.22-3.214h-.774a3.216 3.216 0 0 0-3.22 3.214v3.573c0 .555.289 1.051.716 1.34v3.442c0 .06-.03.12-.09.14-.486.237-2.87 1.438-5.086 3.264a1.74 1.74 0 0 0-.626 1.34v2.45"/>
        <path fill="#FFF" d="M29.596 43.327a.895.895 0 0 0-.902.881v3.487c0 4.154 3.461 7.533 7.716 7.533h11.348l-1.488 1.453a.868.868 0 0 0 0 1.24.906.906 0 0 0 .635.26.906.906 0 0 0 .634-.26l3.016-2.944a.87.87 0 0 0 .268-.62.87.87 0 0 0-.268-.62l-3.016-2.944a.92.92 0 0 0-1.27 0 .868.868 0 0 0 0 1.24l1.489 1.452H36.41c-3.263 0-5.921-2.595-5.921-5.78v-3.487a.883.883 0 0 0-.893-.89zM41.443 35.085a.903.903 0 0 0 .634.262.903.903 0 0 0 .633-.262.87.87 0 0 0 0-1.24l-1.484-1.453h11.37c3.257 0 5.91 2.597 5.91 5.784v3.488c0 .484.405.881.9.881s.9-.397.9-.881v-3.488c0-4.156-3.453-7.537-7.7-7.537h-11.37l1.484-1.454a.87.87 0 0 0 0-1.24.916.916 0 0 0-1.267 0l-3.008 2.945a.872.872 0 0 0-.268.62c0 .233.1.456.268.62l2.998 2.955z"/>
        <path fill="#FFF" d="M20.95 43.327c.512 0 .93-.402.93-.892v-2.422c0-.245.113-.48.307-.637 2.208-1.736 4.6-2.893 5.05-3.109.368-.176.613-.54.613-.941v-3.403a.868.868 0 0 0-.409-.735.697.697 0 0 1-.327-.589v-3.53c0-1.265 1.073-2.294 2.382-2.294h.787c1.318 0 2.381 1.03 2.381 2.294v3.53a.71.71 0 0 1-.327.589.88.88 0 0 0-.409.735v3.403c0 .392.236.765.614.941.46.216 2.852 1.373 5.05 3.109a.807.807 0 0 1 .306.637v2.422c0 .49.419.892.93.892.511 0 .93-.402.93-.892v-2.422c0-.785-.358-1.51-.991-2.01-1.953-1.54-4.048-2.658-4.988-3.128v-2.54a2.42 2.42 0 0 0 .735-1.736v-3.53c0-2.245-1.9-4.069-4.241-4.069h-.787c-2.341 0-4.242 1.824-4.242 4.07v3.53c0 .656.265 1.274.736 1.735v2.54c-.94.47-3.036 1.588-4.989 3.128a2.559 2.559 0 0 0-.991 2.01v2.422c.02.5.44.892.95.892zM50.234 60.675a2.558 2.558 0 0 0-.992 2.01v2.423c0 .49.42.892.93.892.512 0 .931-.402.931-.892v-2.422c0-.245.113-.48.307-.638 2.209-1.735 4.602-2.892 5.052-3.108.368-.177.614-.54.614-.941v-3.403a.868.868 0 0 0-.41-.735.697.697 0 0 1-.327-.589v-3.53c0-1.265 1.074-2.294 2.383-2.294h.788c1.319 0 2.393 1.03 2.393 2.294v3.53a.71.71 0 0 1-.328.589.88.88 0 0 0-.409.735v3.403c0 .392.236.764.614.94.46.217 2.853 1.374 5.052 3.11a.807.807 0 0 1 .307.637v2.422c0 .49.419.892.93.892.512 0 .931-.402.931-.892v-2.422c0-.785-.358-1.51-.992-2.01-1.953-1.54-4.05-2.658-4.99-3.129v-2.54a2.42 2.42 0 0 0 .736-1.735v-3.53c0-2.245-1.902-4.07-4.244-4.07h-.788c-2.342 0-4.244 1.825-4.244 4.07v3.53c0 .657.266 1.275.736 1.736v2.54c-.93.47-3.017 1.588-4.98 3.127z"/>
    </g>
</svg>
