<svg xmlns="http://www.w3.org/2000/svg" width="88" height="88" viewBox="0 0 88 88">
    <g fill="none" fill-rule="evenodd">
        <circle cx="44" cy="44" r="44" fill="#08A1D2" fill-rule="nonzero"/>
        <g transform="translate(20 20)">
            <circle cx="24" cy="42.885" r="3.541" fill="#0180B8"/>
            <circle cx="24" cy="5.115" r="3.541" fill="#0180B8"/>
            <circle cx="42.885" cy="24" r="3.541" fill="#0180B8"/>
            <circle cx="5.115" cy="24" r="3.541" fill="#0180B8"/>
            <path fill="#FFF" fill-rule="nonzero" d="M24 33.836a.901.901 0 0 0-.887.909v4.475c-1.96.42-3.44 2.207-3.44 4.345C19.672 46.012 21.611 48 24 48s4.328-1.988 4.328-4.435c0-2.138-1.482-3.926-3.441-4.345v-4.475c0-.5-.4-.909-.887-.909zm2.564 9.729c0 1.448-1.15 2.627-2.564 2.627-1.413 0-2.564-1.179-2.564-2.627 0-1.448 1.15-2.627 2.564-2.627 1.413 0 2.564 1.179 2.564 2.627zM34.186 35.49a4.502 4.502 0 0 0-.743 2.477c0 1.213.468 2.344 1.324 3.2a4.485 4.485 0 0 0 3.2 1.325 4.485 4.485 0 0 0 3.2-1.325 4.485 4.485 0 0 0 1.325-3.2 4.485 4.485 0 0 0-1.325-3.2 4.485 4.485 0 0 0-3.2-1.324c-.897 0-1.753.254-2.476.743l-3.23-3.23a.929.929 0 0 0-1.305 0 .929.929 0 0 0 0 1.304l3.23 3.23zm5.677.592a2.694 2.694 0 0 1 0 3.79 2.66 2.66 0 0 1-1.896.785 2.66 2.66 0 0 1-1.895-.784 2.682 2.682 0 0 1 0-3.78 2.66 2.66 0 0 1 1.895-.786 2.576 2.576 0 0 1 1.896.775zM30.956 17.037a.92.92 0 0 0 .652.274.92.92 0 0 0 .652-.274l3.23-3.229c.735.479 1.58.744 2.477.744a4.487 4.487 0 0 0 3.2-1.324 4.48 4.48 0 0 0 1.325-3.198 4.48 4.48 0 0 0-1.325-3.198 4.487 4.487 0 0 0-3.2-1.324 4.487 4.487 0 0 0-3.2 1.324 4.48 4.48 0 0 0-1.324 3.198c0 .896.254 1.752.743 2.475l-3.23 3.228a.928.928 0 0 0 0 1.304zm5.126-8.901a2.66 2.66 0 0 1 1.895-.784 2.66 2.66 0 0 1 1.896.784 2.691 2.691 0 0 1 0 3.788 2.66 2.66 0 0 1-1.896.784 2.66 2.66 0 0 1-1.895-.784 2.673 2.673 0 0 1 0-3.788zM17.044 30.956a.929.929 0 0 0-1.304 0l-3.23 3.23a4.502 4.502 0 0 0-2.477-.743 4.485 4.485 0 0 0-3.2 1.324 4.485 4.485 0 0 0-1.325 3.2c0 1.213.469 2.344 1.325 3.2a4.485 4.485 0 0 0 3.2 1.325 4.485 4.485 0 0 0 3.2-1.325 4.485 4.485 0 0 0 1.324-3.2c0-.897-.254-1.753-.743-2.476l3.23-3.23a.929.929 0 0 0 0-1.305zm-5.126 8.907a2.66 2.66 0 0 1-1.895.784 2.66 2.66 0 0 1-1.896-.784 2.694 2.694 0 0 1 0-3.791 2.66 2.66 0 0 1 1.896-.785 2.66 2.66 0 0 1 1.895.785 2.676 2.676 0 0 1 0 3.79z"/>
            <path fill="#FFF" d="M25.096 23.087h-2.173c-.841 0-1.522-.71-1.522-1.588 0-.878.68-1.588 1.522-1.588h3.827c.472 0 .86-.405.86-.898s-.388-.898-.86-.898h-1.89v-1.48c0-.493-.388-.897-.86-.897s-.86.404-.86.897v1.48h-.227c-1.786 0-3.24 1.52-3.24 3.384 0 1.865 1.454 3.384 3.24 3.384h2.174c.84 0 1.521.71 1.521 1.588 0 .878-.68 1.589-1.521 1.589h-3.903c-.472 0-.86.404-.86.897 0 .494.388.898.86.898h1.956v1.51c0 .493.388.897.86.897s.86-.404.86-.897v-1.51h.227c1.786 0 3.24-1.52 3.24-3.384 0-1.864-1.445-3.384-3.23-3.384z"/>
            <path fill="#FFF" fill-rule="nonzero" d="M19.672 4.435c0 2.138 1.482 3.926 3.441 4.345v4.475c0 .5.4.909.887.909s.887-.41.887-.909V8.78c1.96-.42 3.44-2.207 3.44-4.345C28.328 1.988 26.389 0 24 0s-4.328 1.988-4.328 4.435zm6.892 0c0 1.448-1.15 2.627-2.564 2.627-1.413 0-2.564-1.179-2.564-2.627 0-1.448 1.15-2.627 2.564-2.627 1.413 0 2.564 1.179 2.564 2.627zM39.22 23.113h-4.475c-.5 0-.909.4-.909.887s.41.887.909.887h4.475c.42 1.96 2.207 3.44 4.345 3.44C46.012 28.328 48 26.389 48 24s-1.988-4.328-4.435-4.328c-2.138 0-3.926 1.482-4.345 3.441zm6.972.887c0 1.413-1.179 2.564-2.627 2.564-1.448 0-2.627-1.15-2.627-2.564 0-1.413 1.179-2.564 2.627-2.564 1.448 0 2.627 1.15 2.627 2.564zM4.435 28.328c2.138 0 3.926-1.482 4.345-3.441h4.475c.5 0 .909-.4.909-.887a.901.901 0 0 0-.909-.887H8.78c-.42-1.96-2.207-3.44-4.345-3.44C1.988 19.672 0 21.611 0 24s1.988 4.328 4.435 4.328zm0-6.892c1.448 0 2.627 1.15 2.627 2.564 0 1.413-1.179 2.564-2.627 2.564-1.448 0-2.627-1.15-2.627-2.564 0-1.413 1.179-2.564 2.627-2.564zM13.233 6.832a4.487 4.487 0 0 0-3.2-1.324 4.487 4.487 0 0 0-3.2 1.324 4.48 4.48 0 0 0-1.325 3.198 4.48 4.48 0 0 0 1.325 3.198 4.487 4.487 0 0 0 3.2 1.324c.897 0 1.753-.255 2.476-.744l3.23 3.229a.92.92 0 0 0 .653.274.928.928 0 0 0 .652-1.579l-3.22-3.217a4.497 4.497 0 0 0 .744-2.475 4.557 4.557 0 0 0-1.335-3.208zm-5.085 5.092a2.691 2.691 0 0 1 0-3.788 2.66 2.66 0 0 1 1.895-.784 2.66 2.66 0 0 1 1.895.784 2.679 2.679 0 0 1 0 3.778 2.66 2.66 0 0 1-1.895.784 2.576 2.576 0 0 1-1.895-.774z"/>
        </g>
    </g>
</svg>
