<svg xmlns="http://www.w3.org/2000/svg" width="14" height="19" viewBox="0 0 14 19">
    <g fill="#453CC2" fill-rule="evenodd">
        <path d="M2 15h10v1H2zM2 5h5v1H2zM2 13h10v1H2zM2 3h5v1H2z"/>
        <path fill-rule="nonzero" d="M9.579 0H1.474C.664 0 0 .633 0 1.407v16.186C0 18.367.663 19 1.474 19h11.052c.81 0 1.474-.633 1.474-1.407V4.926L9.579 0zm0 1.056l3.463 3.87h-2.726c-.369 0-.737-.352-.737-.704V1.056zm3.684 16.537a.722.722 0 0 1-.737.703H1.474c-.369 0-.737-.281-.737-.703V1.407c0-.351.295-.703.737-.703h7.368v3.518c0 .774.663 1.408 1.474 1.408h2.947v11.963z"/>
        <path d="M2 11h10v1H2zM2 7h10v1H2zM2 9h10v1H2z"/>
    </g>
</svg>
