<svg xmlns="http://www.w3.org/2000/svg" width="24" height="24" viewBox="0 0 24 24">
    <g fill="none" fill-rule="nonzero">
        <circle cx="12" cy="12" r="12" fill="#08A1D2"/>
        <g fill="#FFF">
            <path d="M6.26 7.896c.702-1.75 1.927-2.94 3.674-3.568 2.563-.918 4.66.33 5.326.843.665.512 1.939 1.604 2.48 3.829-1.126-.1-2.287-.213-3.481-.34-.59-.787-1.296-1.229-2.117-1.325-.822-.095-1.644.201-2.468.89l-3.413-.33zM5.88 14.762c.404 1.861 1.395 3.251 2.975 4.17 2.317 1.343 4.564.454 5.297.057.733-.398 2.072-1.15 2.984-3.271-1.134-.12-2.248-.242-3.341-.368-.708.685-1.468 1.005-2.279.962-.81-.043-1.554-.476-2.23-1.299l-3.406-.251zM6.26 10l7.953.74c1.877.235 3.053 1.322 3.526 3.26-1.143-.124-3.877-.412-8.202-.866-.734-.058-1.437-.403-2.111-1.037-.674-.633-1.062-1.332-1.165-2.097z"/>
        </g>
    </g>
</svg>
