<svg xmlns="http://www.w3.org/2000/svg" width="24" height="24" viewBox="0 0 24 24">
    <defs>
        <filter id="a" width="172.2%" height="172.2%" x="-36.1%" y="-36.1%" filterUnits="objectBoundingBox">
            <feOffset in="SourceAlpha" result="shadowOffsetOuter1"/>
            <feGaussianBlur in="shadowOffsetOuter1" result="shadowBlurOuter1" stdDeviation="1.5"/>
            <feColorMatrix in="shadowBlurOuter1" result="shadowMatrixOuter1" values="0 0 0 0 0.0705882353 0 0 0 0 0.129411765 0 0 0 0 0.247058824 0 0 0 1 0"/>
            <feMerge>
                <feMergeNode in="shadowMatrixOuter1"/>
                <feMergeNode in="SourceGraphic"/>
            </feMerge>
        </filter>
    </defs>
    <g fill="none" fill-rule="evenodd" filter="url(#a)" transform="translate(3 3)">
        <path fill="#FFDA44" d="M0 9c0 1.1.198 2.155.56 3.13l8.44.783 8.44-.783A8.98 8.98 0 0 0 18 9a8.98 8.98 0 0 0-.56-3.13L9 5.087.56 5.87A8.98 8.98 0 0 0 0 9z"/>
        <g fill="#D80027">
            <path d="M17.44 5.87a9.003 9.003 0 0 0-16.88 0h16.88zM.56 12.13a9.003 9.003 0 0 0 16.88 0H.56z"/>
        </g>
    </g>
</svg>
